<?xml version="1.0" encoding="utf-8"?>
<!-- Generator: Adobe Illustrator 19.0.0, SVG Export Plug-In . SVG Version: 6.00 Build 0)  -->
<svg version="1.1" id="Layer_1" xmlns="http://www.w3.org/2000/svg" xmlns:xlink="http://www.w3.org/1999/xlink" x="0px" y="0px"
	 viewBox="0 0 545.7 130" style="enable-background:new 0 0 545.7 130;" xml:space="preserve">
<style type="text/css">
	.st0{fill:#EE366B;}
</style>
<g id="XMLID_2_">
	<path id="XMLID_3_" class="st0" d="M105.1,103c0,4.4-3.1,9.2-9.4,14.2C85.2,125.7,71.8,130,55.4,130c-17.6,0-31.2-5.3-40.9-15.9
		C4.8,103.5,0,88.5,0,69.2c0-18.6,4.9-33.7,14.7-45.4C25.2,11.2,39.3,5,56.8,5c15,0,27.2,3.9,36.7,11.7c3.6,2.9,5.4,5.6,5.4,8
		c0,1.8-0.7,3.5-2.1,4.9c-1.4,1.4-3.1,2.1-4.9,2.1c-1.2,0-2.9-0.8-5.1-2.4c-9.9-7.1-20-10.7-30.3-10.7c-12.8,0-23,4.5-30.6,13.6
		c-7.6,9-11.4,21.3-11.4,36.9c0,31.3,13.6,46.9,40.9,46.9c15.5,0,26.6-3.8,33.3-11.3c1.5-2,3-4,4.5-6c1.5-1.7,3.1-2.6,5-2.6
		c2,0,3.6,0.7,4.9,2C104.5,99.4,105.1,101,105.1,103z"/>
	<path id="XMLID_5_" class="st0" d="M190.4,74.3c0,13.1-1.3,23.6-3.8,31.5c-2.4,7.5-5.4,11.3-9,11.3c-2.1,0-3.8-0.6-5.2-1.9
		c-1.4-1.3-2.1-2.7-2.1-4.3c4.3-16.1,6.5-28.3,6.5-36.6c0-12.4-1.4-21.5-4.3-27.1c-2.9-5.8-7.7-8.7-14.3-8.7c-3.5,0-7,0.8-10.7,2.5
		c-3.6,1.7-6.4,3.8-8.4,6.2c-2.4,3.1-3.6,7.7-3.6,14v4.4c0,11.7,0.4,23,1.3,34c0.9,11,1.3,16.1,1.3,15.4c0,4.5-2.1,6.8-6.3,6.8
		c-2.4,0-4.2-0.8-5.2-2.3c-0.9-1.3-1.6-3.9-2.2-7.8c-1.6-10.7-2.3-24.9-2.3-42.7c0-15.5,1.7-33.3,5.2-53.4c0.8-4.4,1.5-7.2,2.2-8.5
		c1.1-1.9,2.8-2.9,5.2-2.9c1.7,0,3.2,0.6,4.4,1.9c1.2,1.3,1.8,2.9,1.8,5c0-0.1-1.2,7.6-3.5,23.1c6.1-5.6,13.4-8.5,22.1-8.5
		C180,25.8,190.4,42,190.4,74.3z"/>
	<path id="XMLID_7_" class="st0" d="M226.4,35.5c0,27.7-1,48.1-3,61.3c-0.8,5.3-1.7,8.9-2.6,10.7c-1.2,2.4-3.2,3.6-6,3.6
		c-1.8,0-3.4-0.6-4.7-1.8c-1.3-1.2-1.9-2.7-1.9-4.4c0,0.2,0.4-1.4,1.1-4.7c0.9-3.9,1.6-8.2,2.1-13.1c0.7-7,1.1-14.8,1.1-23.4
		c0-3.8,0-7.7-0.1-11.9c-0.1-4.2-0.1-6.4-0.1-6.8c0-6.2,0.5-10.5,1.6-12.9c1.1-2.7,3.2-4,6.2-4C224.3,28.1,226.4,30.5,226.4,35.5z
		 M229.4,9.3c0,6.5-3.2,9.8-9.6,9.8c-2.6,0-4.7-0.9-6.5-2.7c-1.8-1.8-2.6-3.9-2.6-6.5c0-2.8,1-5.1,2.9-7c1.9-1.9,4.3-2.9,7.1-2.9
		c2.6,0,4.7,0.8,6.3,2.5C228.6,4.2,229.4,6.5,229.4,9.3z"/>
	<path id="XMLID_10_" class="st0" d="M318.5,69.2c0,11.7-3.5,21.1-10.5,28.1c-7,7-16.4,10.5-28.1,10.5c-6.6,0-13-1.4-19.2-4.3
		c-1,10.7-1.9,17.3-2.5,19.8c-1.2,4-3.2,6.1-6.3,6.1c-1.9,0-3.6-0.6-4.9-1.8c-1.3-1.2-2-2.7-2-4.4c0,0.3,0.4-2.6,1.1-8.7
		c0.9-7.2,1.6-14.9,2.1-23.2c0.7-11.9,1.1-24.8,1.1-38.7c0-2.8,0-5.9-0.1-9.5c-0.1-3.6-0.1-5.7-0.1-6.4c0-6.1,2.1-9.2,6.4-9.2
		c4.4,0,6.7,2.1,6.9,6.3l0.1,4.2c5.5-5.3,12.6-8,21.4-8c10.4,0,18.8,3.5,25,10.5C315.3,47.6,318.5,57.2,318.5,69.2z M304.8,69.2
		c0-8.4-1.9-14.9-5.8-19.5c-3.9-4.6-9.3-6.9-16.2-6.9c-10.8,0-17.5,3.4-20,10.2v6.8c0,10.6-0.3,21.1-0.8,31.4
		c5.9,2.8,11.9,4.3,18,4.3c7.9,0,14.1-2.3,18.4-6.8C302.7,84.1,304.8,77.6,304.8,69.2z"/>
	<path id="XMLID_13_" class="st0" d="M402,69.2c0,11.7-3.5,21.1-10.5,28.1c-7,7-16.4,10.5-28.1,10.5c-6.6,0-13-1.4-19.2-4.3
		c-1,10.7-1.9,17.3-2.5,19.8c-1.2,4-3.3,6.1-6.3,6.1c-1.9,0-3.6-0.6-4.9-1.8c-1.3-1.2-2-2.7-2-4.4c0,0.3,0.4-2.6,1.1-8.7
		c0.9-7.2,1.6-14.9,2.1-23.2c0.7-11.9,1.1-24.8,1.1-38.7c0-2.8,0-5.9-0.1-9.5c-0.1-3.6-0.1-5.7-0.1-6.4c0-6.1,2.1-9.2,6.4-9.2
		c4.4,0,6.7,2.1,6.9,6.3L346,38c5.5-5.3,12.6-8,21.4-8c10.4,0,18.8,3.5,25,10.5C398.8,47.6,402,57.2,402,69.2z M388.3,69.2
		c0-8.4-1.9-14.9-5.8-19.5c-3.9-4.6-9.3-6.9-16.2-6.9c-10.8,0-17.5,3.4-20,10.2v6.8c0,10.6-0.3,21.1-0.8,31.4
		c5.9,2.8,11.9,4.3,18,4.3c7.9,0,14.1-2.3,18.4-6.8C386.2,84.1,388.3,77.6,388.3,69.2z"/>
	<path id="XMLID_16_" class="st0" d="M481.9,54.8c0,4.8-1.7,8.3-5,10.6c-1.5,1-6.1,2.3-14,3.9c-10.4,2.2-19.3,3.2-26.6,3.2
		c-3.3,0-7.4-0.2-12.1-0.7c0,17.3,6.6,25.9,19.7,25.9c3.6,0,6.9-1,9.8-3.1c1.5-1,4.1-3.5,7.9-7.4c1.4-1.4,2.8-2.1,4.3-2.1
		c1.9,0,3.6,0.7,5,2.2s2.1,3.2,2.1,5.3c0,1.7-0.7,3.3-2,4.8c-7.9,8.6-17.1,12.9-27.7,12.9c-21.9,0-32.9-12.7-32.9-38
		c0-13.1,3.5-24.4,10.5-33.8c7.9-10.8,17.7-16.2,29.4-16.2c9.1,0,16.6,3.1,22.6,9.1C478.9,37.7,481.9,45.4,481.9,54.8z M468.2,55.7
		c-0.3-6.4-1.9-11.4-5-15.1c-3.1-3.7-6.9-5.6-11.5-5.6c-6,0-11.2,2.1-15.8,6.4c-4.7,4.3-8.2,10.4-10.5,18.3
		c3.3,0.4,6.7,0.5,10.4,0.5C444.8,60.2,455.6,58.7,468.2,55.7z"/>
	<path id="XMLID_19_" class="st0" d="M545.7,45c0,1.7-0.5,3.2-1.6,4.4c-1.1,1.2-2.3,1.8-3.8,1.8c-1.1,0-2.7-0.8-4.9-2.4
		c-2.2-1.6-4.1-2.4-5.8-2.4c-4.4,0-7.9,1.9-10.6,5.7c-2.7,3.8-4.1,9-4.1,15.5v9c0,10-1.1,18-3.2,23.9c-2,5.5-4.5,8.3-7.6,8.3
		c-4.2,0-6.3-2.1-6.3-6.2c0-0.8,0.6-3.9,1.9-9.1c1.3-5.3,1.9-10.2,1.9-14.8c0-12.8-1.8-23.1-5.5-30.8c-0.1-0.2-1.4-2.5-3.8-6.9
		c-1.2-2.2-1.9-4-1.9-5.4c0-1.5,0.7-2.8,2.1-4.1c1.4-1.3,3-1.9,4.6-1.9c4.9,0,8.9,6,12.1,17.9c4.8-9.2,11.7-13.8,20.8-13.8
		c4.6,0,8.3,1.1,11.1,3.2C544.3,39,545.7,41.7,545.7,45z"/>
</g>
</svg>
